<svg width="512" height="512" viewBox="0 0 512 512" xmlns="http://www.w3.org/2000/svg">
  <rect x="0" y="0" width="512" height="512" rx="120" ry="120" fill="#ef476f"/>
  
  <path d="M412.9 154.2c-26.9-28.7-65-42.6-104.9-38.2-31.8 3.5-60.9 18.6-82 41.9-21.1-23.3-50.2-38.4-82-41.9-39.9-4.4-78 9.5-104.9 38.2-28.1 30-41.6 74.5-37 122 5.5 56.6 40.7 107.1 98.4 158.2 12 10.6 69.8 61.7 125.5 106.3 55.7-44.6 113.5-95.7 125.5-106.3 57.7-51.1 92.9-101.6 98.4-158.2 4.6-47.5-8.9-92-37-122z" fill="#ffffff" opacity="0.2"/>
  <path d="M256 448l-30.2-27.2C119.7 326.3 48 261.2 48 181.4c0-65 50.8-116.4 115.8-116.4 35.6 0 69.8 16.6 92.2 42.9 22.4-26.3 56.6-42.9 92.2-42.9 65 0 115.8 51.4 115.8 116.4 0 79.8-71.7 144.9-177.8 239.4L256 448z" fill="none" stroke="#ffffff" stroke-width="28" stroke-linecap="round" stroke-linejoin="round"/>
  <path d="M128 181h50l30-50 40 80 40-80 30 50h50" fill="none" stroke="#ffffff" stroke-width="28" stroke-linecap="round" stroke-linejoin="round"/>
</svg>